<svg width="207" height="74" viewBox="0 0 207 74" fill="none" xmlns="http://www.w3.org/2000/svg">
<path d="M109.255 54.24C108.255 54.24 107.382 54.0333 106.635 53.62C105.888 53.1933 105.268 52.6067 104.775 51.86L105.935 50.9C106.362 51.5267 106.842 52.0133 107.375 52.36C107.908 52.6933 108.535 52.86 109.255 52.86C111.148 52.86 112.095 51.9733 112.095 50.2C112.095 49.48 111.922 48.9333 111.575 48.56C111.228 48.1867 110.628 47.8933 109.775 47.68L108.735 47.42C107.508 47.1133 106.602 46.6667 106.015 46.08C105.442 45.48 105.155 44.64 105.155 43.56C105.155 42.32 105.542 41.3867 106.315 40.76C107.088 40.12 108.115 39.8 109.395 39.8C110.368 39.8 111.182 39.98 111.835 40.34C112.502 40.7 113.082 41.2667 113.575 42.04L112.395 42.88C112.035 42.32 111.622 41.9 111.155 41.62C110.702 41.3267 110.095 41.18 109.335 41.18C108.482 41.18 107.828 41.3667 107.375 41.74C106.935 42.1133 106.715 42.72 106.715 43.56C106.715 44.24 106.895 44.7533 107.255 45.1C107.628 45.4467 108.222 45.72 109.035 45.92L110.075 46.18C110.728 46.34 111.282 46.5333 111.735 46.76C112.188 46.9733 112.555 47.24 112.835 47.56C113.128 47.88 113.335 48.26 113.455 48.7C113.588 49.1267 113.655 49.6267 113.655 50.2C113.655 51.52 113.262 52.5267 112.475 53.22C111.702 53.9 110.628 54.24 109.255 54.24ZM119.463 54.24C118.183 54.24 117.176 53.82 116.443 52.98C115.723 52.14 115.363 50.76 115.363 48.84C115.363 46.92 115.723 45.54 116.443 44.7C117.176 43.86 118.183 43.44 119.463 43.44C120.436 43.44 121.21 43.6667 121.783 44.12C122.37 44.56 122.796 45.1267 123.063 45.82L121.803 46.46C121.63 45.9267 121.356 45.52 120.983 45.24C120.61 44.9467 120.103 44.8 119.463 44.8C118.623 44.8 118.003 45.0467 117.603 45.54C117.203 46.0333 117.003 46.7867 117.003 47.8V49.88C117.003 50.8933 117.203 51.6467 117.603 52.14C118.003 52.6333 118.623 52.88 119.463 52.88C120.13 52.88 120.663 52.7333 121.063 52.44C121.476 52.1467 121.803 51.7 122.043 51.1L123.163 51.88C122.856 52.6 122.39 53.1733 121.763 53.6C121.15 54.0267 120.383 54.24 119.463 54.24ZM125.145 54V43.68H126.665V45.6H126.865C127.038 45 127.332 44.5333 127.745 44.2C128.172 43.8533 128.725 43.68 129.405 43.68H129.965V45.22H128.965C128.245 45.22 127.678 45.38 127.265 45.7C126.865 46.02 126.665 46.5 126.665 47.14V54H125.145ZM137.486 52.32H137.286C137.086 52.96 136.772 53.44 136.346 53.76C135.932 54.08 135.366 54.24 134.646 54.24C133.726 54.24 132.999 53.9267 132.466 53.3C131.946 52.6733 131.686 51.7067 131.686 50.4V43.68H133.206V50.3C133.206 51.1267 133.372 51.76 133.706 52.2C134.052 52.64 134.579 52.86 135.286 52.86C135.899 52.86 136.419 52.6733 136.846 52.3C137.272 51.9267 137.486 51.4 137.486 50.72V43.68H139.006V54H137.486V52.32ZM142.04 54V43.68H143.56V45.36H143.76C143.96 44.72 144.253 44.24 144.64 43.92C145.026 43.6 145.573 43.44 146.28 43.44C146.92 43.44 147.46 43.6 147.9 43.92C148.353 44.2267 148.693 44.7067 148.92 45.36H149.12C149.333 44.72 149.666 44.24 150.12 43.92C150.573 43.6 151.173 43.44 151.92 43.44C152.8 43.44 153.506 43.7533 154.04 44.38C154.573 45.0067 154.84 45.9733 154.84 47.28V54H153.32V47.38C153.32 46.5533 153.153 45.92 152.82 45.48C152.5 45.04 152 44.82 151.32 44.82C150.72 44.82 150.213 45.0067 149.8 45.38C149.4 45.7533 149.2 46.28 149.2 46.96V54H147.68V47.38C147.68 46.5533 147.513 45.92 147.18 45.48C146.86 45.04 146.36 44.82 145.68 44.82C145.08 44.82 144.573 45.0067 144.16 45.38C143.76 45.7533 143.56 46.28 143.56 46.96V54H142.04ZM162.02 43.68H163.54V45.36H163.74C163.94 44.68 164.26 44.1933 164.7 43.9C165.153 43.5933 165.7 43.44 166.34 43.44C166.953 43.44 167.493 43.5667 167.96 43.82C168.427 44.0733 168.82 44.4333 169.14 44.9C169.46 45.3667 169.7 45.9333 169.86 46.6C170.02 47.2667 170.1 48.0133 170.1 48.84C170.1 49.6667 170.02 50.4133 169.86 51.08C169.7 51.7467 169.46 52.3133 169.14 52.78C168.82 53.2467 168.427 53.6067 167.96 53.86C167.493 54.1133 166.953 54.24 166.34 54.24C165.7 54.24 165.153 54.0933 164.7 53.8C164.26 53.4933 163.94 53 163.74 52.32H163.54V58H162.02V43.68ZM165.88 52.88C166.72 52.88 167.36 52.62 167.8 52.1C168.24 51.5667 168.46 50.8267 168.46 49.88V47.8C168.46 46.8533 168.24 46.12 167.8 45.6C167.36 45.0667 166.72 44.8 165.88 44.8C165.56 44.8 165.253 44.8467 164.96 44.94C164.68 45.0333 164.433 45.1667 164.22 45.34C164.02 45.5133 163.853 45.72 163.72 45.96C163.6 46.2 163.54 46.4667 163.54 46.76V50.92C163.54 51.2133 163.6 51.48 163.72 51.72C163.853 51.96 164.02 52.1667 164.22 52.34C164.433 52.5133 164.68 52.6467 164.96 52.74C165.253 52.8333 165.56 52.88 165.88 52.88ZM176.028 54.24C175.428 54.24 174.868 54.14 174.348 53.94C173.828 53.74 173.382 53.42 173.008 52.98C172.635 52.54 172.342 51.98 172.128 51.3C171.915 50.62 171.808 49.8 171.808 48.84C171.808 47.88 171.915 47.06 172.128 46.38C172.342 45.7 172.635 45.14 173.008 44.7C173.382 44.26 173.828 43.94 174.348 43.74C174.868 43.54 175.428 43.44 176.028 43.44C176.628 43.44 177.188 43.54 177.708 43.74C178.228 43.94 178.675 44.26 179.048 44.7C179.422 45.14 179.715 45.7 179.928 46.38C180.142 47.06 180.248 47.88 180.248 48.84C180.248 49.8 180.142 50.62 179.928 51.3C179.715 51.98 179.422 52.54 179.048 52.98C178.675 53.42 178.228 53.74 177.708 53.94C177.188 54.14 176.628 54.24 176.028 54.24ZM176.028 52.88C176.855 52.88 177.488 52.6333 177.928 52.14C178.382 51.6467 178.608 50.8933 178.608 49.88V47.8C178.608 46.7867 178.382 46.0333 177.928 45.54C177.488 45.0467 176.855 44.8 176.028 44.8C175.202 44.8 174.562 45.0467 174.108 45.54C173.668 46.0333 173.448 46.7867 173.448 47.8V49.88C173.448 50.8933 173.668 51.6467 174.108 52.14C174.562 52.6333 175.202 52.88 176.028 52.88ZM182.586 39.2H184.106V46.8L183.986 48.82H184.146L185.586 46.88L188.166 43.68H190.006L186.586 47.78L190.306 54H188.486L185.466 48.68L184.106 50.28V54H182.586V39.2ZM195.462 54.24C194.862 54.24 194.302 54.14 193.782 53.94C193.262 53.74 192.815 53.42 192.442 52.98C192.069 52.54 191.775 51.98 191.562 51.3C191.349 50.62 191.242 49.8 191.242 48.84C191.242 47.88 191.349 47.06 191.562 46.38C191.775 45.7 192.069 45.14 192.442 44.7C192.815 44.26 193.262 43.94 193.782 43.74C194.302 43.54 194.862 43.44 195.462 43.44C196.062 43.44 196.609 43.54 197.102 43.74C197.609 43.94 198.035 44.26 198.382 44.7C198.729 45.14 198.995 45.7 199.182 46.38C199.382 47.06 199.482 47.88 199.482 48.84V49.22H192.862V49.88C192.862 50.8933 193.089 51.6533 193.542 52.16C194.009 52.6533 194.649 52.9 195.462 52.9C196.155 52.9 196.722 52.7533 197.162 52.46C197.602 52.1533 197.949 51.7 198.202 51.1L199.242 51.86C198.922 52.5667 198.449 53.14 197.822 53.58C197.209 54.02 196.422 54.24 195.462 54.24ZM195.462 44.72C194.635 44.72 193.995 44.98 193.542 45.5C193.089 46.02 192.862 46.7867 192.862 47.8V48.06H197.862V47.8C197.862 45.7467 197.062 44.72 195.462 44.72ZM201.844 54V43.68H203.364V45.6H203.564C203.738 45 204.031 44.5333 204.444 44.2C204.871 43.8533 205.424 43.68 206.104 43.68H206.664V45.22H205.664C204.944 45.22 204.378 45.38 203.964 45.7C203.564 46.02 203.364 46.5 203.364 47.14V54H201.844Z" fill="#5B5454"/>
<path d="M105.46 33V19.04H113.62V21.22H107.96V24.86H112.86V26.98H107.96V33H105.46ZM122.342 33L121.362 29.36H116.862L115.882 33H113.482L117.562 19.04H120.722L124.802 33H122.342ZM119.682 23.52L119.242 21.3H118.962L118.522 23.52L117.462 27.34H120.762L119.682 23.52ZM126.671 33V19.04H129.171V30.82H134.071V33H126.671ZM136.124 19.04H142.064C143.157 19.04 143.977 19.3533 144.524 19.98C145.084 20.6067 145.364 21.4867 145.364 22.62C145.364 23.54 145.171 24.2533 144.784 24.76C144.397 25.2667 143.824 25.5467 143.064 25.6V25.9C143.477 25.9 143.851 25.98 144.184 26.14C144.531 26.2867 144.824 26.5 145.064 26.78C145.317 27.0467 145.511 27.3733 145.644 27.76C145.777 28.1333 145.844 28.5467 145.844 29C145.844 29.5733 145.764 30.1067 145.604 30.6C145.457 31.08 145.244 31.5 144.964 31.86C144.684 32.22 144.344 32.5 143.944 32.7C143.557 32.9 143.117 33 142.624 33H136.124V19.04ZM138.624 30.82H141.904C142.317 30.82 142.637 30.7133 142.864 30.5C143.104 30.2733 143.224 29.9 143.224 29.38V28.4C143.224 27.88 143.104 27.5133 142.864 27.3C142.637 27.0733 142.317 26.96 141.904 26.96H138.624V30.82ZM138.624 24.84H141.504C141.904 24.84 142.217 24.74 142.444 24.54C142.671 24.34 142.784 23.9933 142.784 23.5V22.56C142.784 22.0667 142.671 21.72 142.444 21.52C142.217 21.32 141.904 21.22 141.504 21.22H138.624V24.84Z" fill="#5B5454"/>
<rect x="15.0911" width="45" height="58" rx="9" transform="rotate(15.0814 15.0911 0)" fill="#3734B6"/>
<rect x="35" y="17.3455" width="45" height="58" rx="9" transform="rotate(-15.923 35 17.3455)" fill="#3734B6"/>
<rect x="32" y="17.3455" width="45" height="58" rx="9" transform="rotate(-15.923 32 17.3455)" fill="white"/>
<path d="M19.8554 47V43.16H24.8154V27.928H24.5274L21.4234 32.344L18.3834 30.296L22.3514 24.664H29.2954V43.16H33.6154V47H19.8554Z" fill="white"/>
<path d="M58.0571 35.6842C58.549 35.542 58.9587 35.3459 59.2861 35.0959C59.6136 34.8458 59.8574 34.5755 60.0177 34.2849C60.178 33.9943 60.2709 33.701 60.2964 33.4049C60.3365 33.0825 60.318 32.788 60.241 32.5216L59.9567 31.5379C59.785 30.9435 59.4247 30.5036 58.8758 30.218C58.3211 29.912 57.6441 29.8745 56.8448 30.1055C56.025 30.3424 55.3596 30.7678 54.8486 31.3818C54.3376 31.9958 53.9371 32.7999 53.6471 33.7942L50.2222 32.0858C50.6575 30.672 51.3734 29.4992 52.3699 28.5673C53.3604 27.6149 54.5935 26.9255 56.0691 26.499C58.1596 25.895 59.9324 25.8823 61.3876 26.4611C62.8633 27.0339 63.8765 28.2734 64.4273 30.1794C64.6346 30.8967 64.7157 31.5616 64.6707 32.1742C64.6461 32.7809 64.5291 33.3365 64.3196 33.8412C64.1247 34.3194 63.8374 34.7467 63.4576 35.1229C63.0983 35.4932 62.6845 35.7904 62.2163 36.0145L62.3584 36.5064C62.9619 36.4431 63.5422 36.453 64.0992 36.5363C64.6503 36.5991 65.1533 36.7647 65.6084 37.0329C66.0779 37.2747 66.4849 37.6456 66.8293 38.1457C67.1882 38.6193 67.4743 39.2251 67.6875 39.9629C67.9895 41.0081 68.0848 41.991 67.9733 42.9114C67.8822 43.826 67.5917 44.6649 67.1017 45.4283C66.6322 46.1858 65.9807 46.8515 65.1473 47.4254C64.3344 47.9934 63.354 48.4432 62.2063 48.7749C61.2431 49.0532 60.3395 49.1922 59.4955 49.1918C58.6721 49.1855 57.9099 49.0838 57.2089 48.8866C56.5225 48.663 55.8931 48.3675 55.3206 48C54.7685 47.6265 54.2588 47.2076 53.7915 46.743L56.278 43.3598C56.9485 44.1431 57.6741 44.7329 58.4547 45.129C59.25 45.4988 60.1497 45.5386 61.154 45.2484C62.0762 44.9819 62.7122 44.5316 63.062 43.8976C63.4322 43.2577 63.5048 42.5483 63.2798 41.7695L62.9955 40.7858C62.7882 40.0684 62.3295 39.557 61.6195 39.2515C60.9094 38.9459 60.0317 38.9441 58.9865 39.2462L57.2957 39.7348L56.2741 36.1994L58.0571 35.6842Z" fill="#3734B6"/>
</svg>
